<svg width="24" height="24" viewBox="0 0 24 24" fill="none" xmlns="http://www.w3.org/2000/svg">
<path fill-rule="evenodd" clip-rule="evenodd" d="M12 23C5.92487 23 1 18.0751 1 12C1 5.92487 5.92487 1 12 1C18.0751 1 23 5.92487 23 12C23 18.0751 18.0751 23 12 23ZM12 21C16.9706 21 21 16.9706 21 12C21 7.02944 16.9706 3 12 3C7.02944 3 3 7.02944 3 12C3 16.9706 7.02944 21 12 21ZM8.29289 16.7071L9.70711 15.2929L6.41421 12L9.70711 8.70711L8.29289 7.29289L3.58579 12L8.29289 16.7071ZM14.2929 8.70711L15.7071 7.29289L20.4142 12L15.7071 16.7071L14.2929 15.2929L17.5858 12L14.2929 8.70711ZM10.0136 17.8356L11.9864 18.1644L13.9864 6.1644L12.0136 5.8356L10.0136 17.8356Z" fill="black"/>
</svg>
