<svg width="24" height="24" viewBox="0 0 24 24" fill="none" xmlns="http://www.w3.org/2000/svg">
<path fill-rule="evenodd" clip-rule="evenodd" d="M8.99592 2C9.7482 1.36297 10.8391 1 12 1C13.1609 1 14.2518 1.36297 15.0041 2H16C17.1046 2 18 2.89543 18 4H19C20.1046 4 21 4.89543 21 6V21C21 22.1046 20.1046 23 19 23H5C3.89543 23 3 22.1046 3 21V6C3 4.89543 3.89543 4 5 4H6C6 2.89543 6.89543 2 8 2H8.99592ZM16 7C16.7403 7 17.3866 6.5978 17.7324 6H19V21H5V6H6.26756C6.61337 6.5978 7.25972 7 8 7H16ZM15.2929 10.2929L11 14.5858L8.70711 12.2929L7.29289 13.7071L11 17.4142L16.7071 11.7071L15.2929 10.2929ZM9.85762 4L10.1566 3.65538C10.4852 3.27674 11.1894 3 12 3C12.8106 3 13.5148 3.27674 13.8434 3.65538L14.1424 4H16V5H8V4H9.40135H9.85762Z" fill="black"/>
</svg>
