<svg width="24" height="24" fill="none" xmlns="http://www.w3.org/2000/svg"><path fill-rule="evenodd" clip-rule="evenodd" d="M10 3.586L18.414 12 10 20.414v-4.58c-2.044-.225-4.124.704-6.293 2.873L2 20.414V18c0-6.15 2.739-9.587 8-9.965v-4.45zm2 4.828V10h-1c-4.022 0-6.25 1.81-6.84 5.682 2.314-1.68 4.687-2.251 7.082-1.652l.758.19v1.366L15.586 12 12 8.414zm2-4.828v3L19.414 12 14 17.414v3L22.414 12 14 3.586z" fill="#000"/><mask id="a" maskUnits="userSpaceOnUse" x="2" y="3" width="21" height="18"><path fill-rule="evenodd" clip-rule="evenodd" d="M10 3.586L18.414 12 10 20.414v-4.58c-2.044-.225-4.124.704-6.293 2.873L2 20.414V18c0-6.15 2.739-9.587 8-9.965v-4.45zm2 4.828V10h-1c-4.022 0-6.25 1.81-6.84 5.682 2.314-1.68 4.687-2.251 7.082-1.652l.758.19v1.366L15.586 12 12 8.414zm2-4.828v3L19.414 12 14 17.414v3L22.414 12 14 3.586z" fill="#fff"/></mask></svg>