<svg width="24" height="24" viewBox="0 0 24 24" fill="none" xmlns="http://www.w3.org/2000/svg">
<path fill-rule="evenodd" clip-rule="evenodd" d="M12.0868 18L6 21.8042V18H4C2.89543 18 2 17.1046 2 16V4C2 2.89543 2.89543 2 4 2H20C21.1046 2 22 2.89543 22 4V16C22 17.1046 21.1046 18 20 18H12.0868ZM8 18.1958L11.5132 16H20V4H4V16H8V18.1958ZM14.2929 6.29289L12 8.58579L9.70711 6.29289L8.29289 7.70711L10.5858 10L8.29289 12.2929L9.70711 13.7071L12 11.4142L14.2929 13.7071L15.7071 12.2929L13.4142 10L15.7071 7.70711L14.2929 6.29289Z" fill="black"/>
</svg>
