<svg width="24" height="24" viewBox="0 0 24 24" fill="none" xmlns="http://www.w3.org/2000/svg">
<path fill-rule="evenodd" clip-rule="evenodd" d="M6.20718 2.70712L4.79297 1.29291L1.29297 4.79291L2.70718 6.20712L6.20718 2.70712ZM19.2072 1.29291L22.7072 4.79291L21.293 6.20712L17.793 2.70712L19.2072 1.29291ZM2.00008 12C2.00008 17.5229 6.47723 22 12.0001 22C17.5229 22 22.0001 17.5229 22.0001 12C22.0001 6.47717 17.5229 2.00001 12.0001 2.00001C6.47723 2.00001 2.00008 6.47717 2.00008 12ZM20.0001 12C20.0001 16.4183 16.4184 20 12.0001 20C7.5818 20 4.00008 16.4183 4.00008 12C4.00008 7.58174 7.5818 4.00001 12.0001 4.00001C16.4184 4.00001 20.0001 7.58174 20.0001 12ZM11.0001 13H8.00008V11H11.0001V8.00001H13.0001V11H16.0001V13H13.0001V16H11.0001V13Z" fill="black"/>
</svg>
