<svg width="24" height="24" viewBox="0 0 24 24" fill="none" xmlns="http://www.w3.org/2000/svg">
<path fill-rule="evenodd" clip-rule="evenodd" d="M15 20V22H4C2.89543 22 2 21.1046 2 20V4C2 2.89543 2.89543 2 4 2H20C21.1046 2 22 2.89543 22 4V14H20V4H4V20H15ZM12 7.13148V12.1405C11.6845 12.049 11.3471 12 11 12C9.39543 12 8 13.0466 8 14.5C8 15.9534 9.39543 17 11 17C12.6046 17 14 15.9534 14 14.5V10.8685L15.4453 11.8321L16.5547 10.1679L12 7.13148ZM17 21H19V23H21V21H23V19H21V17H19V19H17V21ZM12 14.5C12 14.7034 11.6046 15 11 15C10.3954 15 10 14.7034 10 14.5C10 14.2966 10.3954 14 11 14C11.6046 14 12 14.2966 12 14.5Z" fill="black"/>
</svg>
