<svg width="24" height="24" viewBox="0 0 24 24" fill="none" xmlns="http://www.w3.org/2000/svg">
<path fill-rule="evenodd" clip-rule="evenodd" d="M23 14C23 16.7614 20.7614 19 18 19H7C3.68629 19 1 16.3137 1 13C1 9.95877 3.26703 7.43346 6.21989 7.05027C7.50902 5.16507 9.65343 4 12 4C15.1586 4 17.875 6.10562 18.7254 9.05224C21.1431 9.40363 23 11.485 23 14ZM18 17C19.6569 17 21 15.6569 21 14C21 12.3431 19.6569 11 18 11L17.9686 11.0002L17.9375 11.0006L17.0738 11.0182L16.9309 10.1662C16.5303 7.77626 14.4511 6 12 6C10.1924 6 8.5543 6.96643 7.66642 8.50398L7.39066 8.98151L6.83965 9.00314C4.69934 9.08715 3 10.8504 3 13C3 15.2091 4.79086 17 7 17H18ZM13.2929 9.29289L10 12.5858L8.70711 11.2929L7.29289 12.7071L10 15.4142L14.7071 10.7071L13.2929 9.29289Z" fill="black"/>
</svg>
