<svg width="24" height="24" viewBox="0 0 24 24" fill="none" xmlns="http://www.w3.org/2000/svg">
<path fill-rule="evenodd" clip-rule="evenodd" d="M3.89126 2.56665L5.36557 3.91811C3.89657 5.51979 3 7.65503 3 9.99966C3 12.3443 3.89657 14.4795 5.36557 16.0812L3.89126 17.4327C2.09581 15.4751 1 12.8653 1 9.99966C1 7.134 2.09581 4.52427 3.89126 2.56665ZM20.1087 2.56698C21.9042 4.5246 23 7.13433 23 9.99999C23 12.8657 21.9042 15.4754 20.1087 17.433L18.6344 16.0816C20.1034 14.4799 21 12.3446 21 9.99999C21 7.65536 20.1034 5.52012 18.6344 3.91844L20.1087 2.56698ZM8.72076 22L9.38743 20H14.6126L15.2792 22H17.3874L14.1012 12.1413C14.6559 11.5969 15 10.8386 15 9.99999C15 8.34314 13.6569 6.99999 12 6.99999C10.3431 6.99999 9 8.34314 9 9.99999C9 10.8386 9.3441 11.5969 9.89882 12.1413L6.61257 22H8.72076ZM10.0541 18L10.7208 16H13.2792L13.9459 18H10.0541ZM12.6126 14L12.2751 12.9875C12.1845 12.9958 12.0927 13 12 13C11.9073 13 11.8155 12.9958 11.7249 12.9875L11.3874 14H12.6126ZM13 9.99999C13 10.5523 12.5523 11 12 11C11.4477 11 11 10.5523 11 9.99999C11 9.44771 11.4477 8.99999 12 8.99999C12.5523 8.99999 13 9.44771 13 9.99999ZM19 9.99999C19 8.17639 18.3027 6.51565 17.1601 5.26989L15.6858 6.62135C16.5019 7.51118 17 8.69742 17 9.99999C17 11.3026 16.5019 12.4888 15.6858 13.3786L17.1601 14.7301C18.3027 13.4843 19 11.8236 19 9.99999ZM8.31421 6.62102L6.83989 5.26956C5.69733 6.51532 5 8.17606 5 9.99966C5 11.8233 5.69733 13.484 6.83989 14.7298L8.31421 13.3783C7.4981 12.4885 7 11.3022 7 9.99966C7 8.69709 7.4981 7.51085 8.31421 6.62102Z" fill="black"/>
</svg>
