<svg width="24" height="24" fill="none" xmlns="http://www.w3.org/2000/svg"><path fill-rule="evenodd" clip-rule="evenodd" d="M13.343 6.544l1.425 1.403-6.318 6.416a.836.836 0 000 1.168c.3.307.803.305 1.1-.002l6.952-7.062a2.671 2.671 0 000-3.734c-.968-.988-2.681-.966-3.63.002l-7.587 7.702a4.505 4.505 0 000 6.3c1.663 1.698 4.52 1.67 6.158 0l8.849-8.988 1.425 1.403-8.847 8.986c-2.414 2.463-6.56 2.503-9.014 0a6.506 6.506 0 01.002-9.103l7.587-7.702c1.724-1.758 4.725-1.797 6.486 0a4.672 4.672 0 01-.002 6.536l-6.947 7.057a2.771 2.771 0 01-3.96.004 2.837 2.837 0 010-3.969l6.32-6.417z" fill="#000"/></svg>