<svg width="24" height="24" viewBox="0 0 24 24" fill="none" xmlns="http://www.w3.org/2000/svg">
<path fill-rule="evenodd" clip-rule="evenodd" d="M4 8.99997H5.99978C6.00007 9.36652 6.20262 9.71932 6.55279 9.8944C7.04676 10.1414 7.64744 9.94117 7.89443 9.44719L8.11803 8.99997H15.882L16.1056 9.44719C16.3526 9.94117 16.9532 10.1414 17.4472 9.8944C17.7974 9.71932 17.9999 9.36652 18.0002 8.99997H20V11H4V8.99997ZM17.118 6.99997H20C21.1046 6.99997 22 7.89541 22 8.99997V11C22 11.84 21.4821 12.5591 20.7482 12.8553C20.7516 12.9031 20.7534 12.9513 20.7534 13C20.7534 13.1459 20.7374 13.2914 20.7058 13.4338L19.1502 20.4338C18.9469 21.3489 18.1352 22 17.1978 22H6.80217C5.86477 22 5.05315 21.3489 4.8498 20.4338L3.29424 13.4338C3.25095 13.239 3.23767 13.0445 3.25134 12.8551C2.51767 12.5588 2 11.8398 2 11V8.99997C2 7.89541 2.89543 6.99997 4 6.99997H6.88197L9.10557 2.55276C9.35256 2.05878 9.95323 1.85856 10.4472 2.10555C10.9412 2.35254 11.1414 2.95321 10.8944 3.44719L9.11803 6.99997H14.882L13.1056 3.44719C12.8586 2.95321 13.0588 2.35254 13.5528 2.10555C14.0468 1.85856 14.6474 2.05878 14.8944 2.55276L17.118 6.99997ZM5.24662 13H18.7534L17.1978 20H6.80217L5.24662 13Z" fill="black"/>
</svg>
