<svg width="24" height="24" viewBox="0 0 24 24" fill="none" xmlns="http://www.w3.org/2000/svg">
<path fill-rule="evenodd" clip-rule="evenodd" d="M12 23.3276L12.6577 22.7533C18.1887 17.9237 21 13.7068 21 10C21 4.75066 16.9029 1 12 1C7.09705 1 3 4.75066 3 10C3 13.7068 5.81131 17.9237 11.3423 22.7533L12 23.3276ZM12 20.6634C7.30661 16.4335 5 12.8492 5 10C5 5.8966 8.16411 3 12 3C15.8359 3 19 5.8966 19 10C19 12.8492 16.6934 16.4335 12 20.6634ZM13 13H11C11 11.2984 11.6246 10.5697 13.0528 9.85557C13.8746 9.44468 14 9.29835 14 8.5C14 7.55641 13.2772 7 12 7C10.8954 7 10 7.89543 10 9H8C8 6.79086 9.79086 5 12 5C14.2843 5 16 6.32063 16 8.5C16 10.2016 15.3754 10.9303 13.9472 11.6444C13.1254 12.0553 13 12.2016 13 13ZM13.0007 14.9983C13.0007 15.5506 12.5528 15.9983 12.0003 15.9983C11.4479 15.9983 11 15.5506 11 14.9983C11 14.4461 11.4479 13.9983 12.0003 13.9983C12.5528 13.9983 13.0007 14.4461 13.0007 14.9983Z" fill="black"/>
</svg>
