<svg width="24" height="24" viewBox="0 0 24 24" fill="none" xmlns="http://www.w3.org/2000/svg">
<path fill-rule="evenodd" clip-rule="evenodd" d="M14.4267 9.32399C13.8091 9.11844 12.9237 9.0002 11.9968 9C11.0704 8.9998 10.185 9.11796 9.56735 9.32363C9.29782 9.41337 9.10254 9.51249 8.99819 9.59942V10.4998C8.99831 11.0561 8.98526 11.3378 8.91482 11.6767C8.7653 12.3959 8.36504 12.953 7.59794 12.9972C5.57993 13.3324 4.23197 13.5 3.49955 13.5C2.04222 13.5 1 12.1968 1 11V9.5C1 5.77611 6.02665 2.99871 11.9972 3C17.9691 3.00129 22.994 5.77688 22.9936 9.47284C22.9981 9.63908 23 9.8114 23 10.0055C23 10.1468 22.9992 10.2587 22.9969 10.5091C22.9947 10.756 22.994 10.8651 22.994 11C22.994 12.1896 21.9503 13.5 20.4944 13.5C19.7627 13.5 18.4166 13.3327 16.4018 12.9981C15.3496 12.9554 15.0604 12.1844 15.0053 11.0441C14.9974 10.8811 14.9958 10.7545 14.9958 10.5011L14.9958 9.59952C14.8914 9.51269 14.6962 9.41367 14.4267 9.32399ZM6.99819 10.5V9.5C6.99819 7.73408 9.20465 6.9994 11.9972 7C14.7914 7.0006 16.9958 7.73428 16.9958 9.5V10.4998C16.9958 10.7225 16.9971 10.8269 17.003 10.9476C17.0051 10.9921 17.0079 11.0335 17.0111 11.0715C18.7615 11.3571 19.9381 11.5 20.4944 11.5C20.7329 11.5 20.994 11.1722 20.994 11C20.994 10.8571 20.9947 10.744 20.997 10.4909C20.9992 10.2465 21 10.1386 21 10.0051C21 9.82803 20.9983 9.67341 20.994 9.5C20.994 7.20109 17.0111 5.00108 11.9968 5C6.98401 4.99892 3 7.20022 3 9.5V11C3 11.1782 3.25738 11.5 3.49955 11.5C4.05591 11.5 5.23279 11.3571 6.98362 11.0714C6.99451 10.9375 6.99825 10.7607 6.99819 10.5ZM11 12V17.5858L8.70711 15.2929L7.29289 16.7071L12 21.4142L16.7071 16.7071L15.2929 15.2929L13 17.5858V12H11Z" fill="black"/>
</svg>
