<svg width="24" height="24" viewBox="0 0 24 24" fill="none" xmlns="http://www.w3.org/2000/svg">
<path fill-rule="evenodd" clip-rule="evenodd" d="M5 3V5H3V7H1V5C1 3.89543 1.81403 3 2.81818 3H5ZM5.81818 6H18.1818C19.186 6 20 6.89543 20 8V16C20 17.1046 19.186 18 18.1818 18H5.81818C4.81403 18 4 17.1046 4 16V8C4 6.89543 4.81403 6 5.81818 6ZM6 12V16H18V12H6ZM6 10H18V8H6V10ZM19 19V21H21.1818C22.186 21 23 20.1046 23 19V17H21V19H19ZM19 3H21.1818C22.186 3 23 3.89543 23 5V7H21V5H19V3ZM2.81818 21H5V19H3V17H1V19C1 20.1046 1.81403 21 2.81818 21Z" fill="black"/>
</svg>
