<svg width="24" height="24" viewBox="0 0 24 24" fill="none" xmlns="http://www.w3.org/2000/svg">
<path fill-rule="evenodd" clip-rule="evenodd" d="M19 11.9994C19 8.42022 18.146 5.12971 16.7143 2.6394L14.9171 3.53528C16.1877 5.69422 16.994 8.67481 16.994 11.9994C16.994 15.324 16.1877 18.3046 14.9171 20.4635L16.7143 21.3594C18.146 18.8691 19 15.5786 19 11.9994ZM14.988 11.9994C14.988 9.16845 14.253 6.54953 13.011 4.48544L11.2114 5.3825C12.3071 7.13754 12.982 9.44729 12.982 11.9994C12.982 14.5515 12.3071 16.8613 11.2114 18.6163L13.011 19.5134C14.253 17.4493 14.988 14.8304 14.988 11.9994ZM9.36873 6.30102C10.3833 7.92065 10.976 9.88643 10.976 11.9994C10.976 14.1124 10.3833 16.0782 9.36873 17.6978L7.56526 16.7988C8.44596 15.465 8.97006 13.8054 8.97006 11.9994C8.97006 10.1934 8.44596 8.53382 7.56526 7.20001L9.36873 6.30102ZM6.96407 11.9994C6.96407 10.5692 6.54372 9.23192 5.8086 8.07566L4 8.9772C4.60973 9.8679 4.95808 10.9022 4.95808 11.9994C4.95808 13.0967 4.60973 14.1309 4 15.0216L5.8086 15.9232C6.54372 14.7669 6.96407 13.4296 6.96407 11.9994Z" fill="black"/>
</svg>
