<svg width="24" height="24" viewBox="0 0 24 24" fill="none" xmlns="http://www.w3.org/2000/svg">
<path fill-rule="evenodd" clip-rule="evenodd" d="M10 11.8471L20 10.1804V14.4666C19.408 14.1686 18.7232 14 18 14C15.8271 14 14 15.5225 14 17.5C14 19.4774 15.8271 21 18 21C20.1729 21 22 19.4774 22 17.5V1.81952L8 4.15285V15.4666C7.40804 15.1686 6.72317 15 6 15C3.82708 15 2 16.5225 2 18.5C2 20.4774 3.82708 22 6 22C8.17292 22 10 20.4774 10 18.5V11.8471ZM8 18.5C8 19.284 7.14079 20 6 20C4.85921 20 4 19.284 4 18.5C4 17.716 4.85921 17 6 17C7.14079 17 8 17.716 8 18.5ZM18 19C19.1408 19 20 18.284 20 17.5C20 16.716 19.1408 16 18 16C16.8592 16 16 16.716 16 17.5C16 18.284 16.8592 19 18 19ZM10 9.81952V5.84711L20 4.18044V8.15285L10 9.81952Z" fill="black"/>
</svg>
