<svg width="24" height="24" viewBox="0 0 24 24" fill="none" xmlns="http://www.w3.org/2000/svg">
<path fill-rule="evenodd" clip-rule="evenodd" d="M18 14.1405V9.13148L22.5547 12.1679L21.4453 13.8321L20 12.8685V16.5C20 17.9534 18.6046 19 17 19C15.3954 19 14 17.9534 14 16.5C14 15.0466 15.3954 14 17 14C17.3471 14 17.6845 14.049 18 14.1405ZM4 19V17H12V19H4ZM4 15V13H12V15H4ZM4 11V9H16V11H4ZM4 7V5H19V7H4ZM17 17C17.6046 17 18 16.7034 18 16.5C18 16.2966 17.6046 16 17 16C16.3954 16 16 16.2966 16 16.5C16 16.7034 16.3954 17 17 17Z" fill="black"/>
</svg>
