<svg width="24" height="24" viewBox="0 0 24 24" fill="none" xmlns="http://www.w3.org/2000/svg">
<path fill-rule="evenodd" clip-rule="evenodd" d="M12 6.61803L8 8.61803V15.382L12 17.382V6.61803ZM14 3.38196L6.76393 6.99999H3C1.89543 6.99999 1 7.89542 1 8.99999V15C1 16.1046 1.89543 17 3 17H6.76393L14 20.618V3.38196ZM3 8.99999H6V15H3V8.99999ZM19 12C19 9.58933 18.0649 7.41237 16.5748 5.94019L14.9973 7.20218C16.2072 8.2917 17 10.0257 17 12C17 13.9743 16.2072 15.7083 14.9973 16.7978L16.5748 18.0598C18.0649 16.5876 19 14.4107 19 12Z" fill="black"/>
</svg>
