<svg width="24" height="24" viewBox="0 0 24 24" fill="none" xmlns="http://www.w3.org/2000/svg">
<path fill-rule="evenodd" clip-rule="evenodd" d="M19 6H3C1.89543 6 1 6.89543 1 8V16C1 17.1046 1.89543 18 3 18H19C20.1046 18 21 17.1046 21 16V15C22.1046 15 23 14.1046 23 13V11C23 9.89543 22.1046 9 21 9V8C21 6.89543 20.1046 6 19 6ZM3 16V8H19V16H3ZM6.07812 9.07373H4.07812V15.2612H6.07812V9.07373ZM7.07812 9.07373H9.07812V15.2612H7.07812V9.07373ZM12.0781 9.07373H10.0781V15.2612H12.0781V9.07373ZM13.0781 9.07373H15.0781V15.2612H13.0781V9.07373ZM18.0781 9.07373H16.0781V15.2612H18.0781V9.07373Z" fill="black"/>
</svg>
