<svg width="24" height="24" viewBox="0 0 24 24" fill="none" xmlns="http://www.w3.org/2000/svg">
<path fill-rule="evenodd" clip-rule="evenodd" d="M4.58579 5.99995L1.29289 2.70706L2.70711 1.29285L22.7071 21.2928L21.2929 22.7071L16.5858 18H3C1.89543 18 1 17.1045 1 16V7.99995C1 6.89538 1.89543 5.99995 3 5.99995H4.58579ZM14.5858 16L6.58579 7.99995H3V16H14.5858ZM10.2071 5.99995H19C20.1046 5.99995 21 6.89538 21 7.99995V8.99995C22.1046 8.99995 23 9.89538 23 11V13C23 14.1045 22.1046 15 21 15V16C21 16.2371 20.9587 16.4647 20.8829 16.6758L19 14.7928V7.99995H12.2071L10.2071 5.99995Z" fill="black"/>
</svg>
