<svg width="24" height="24" viewBox="0 0 24 24" fill="none" xmlns="http://www.w3.org/2000/svg">
<path fill-rule="evenodd" clip-rule="evenodd" d="M20 2H4C2.89543 2 2 2.89543 2 4V8V16V20C2 21.1046 2.89543 22 4 22H20C21.1046 22 22 21.1046 22 20V16V8V4C22 2.89543 21.1046 2 20 2ZM4 20V16H20V20H4ZM4 8H20V4H4V8ZM4 14V10H20V14H4ZM8 11H15V13H8V11ZM18 6C18 6.55228 17.5523 7 17 7C16.4477 7 16 6.55228 16 6C16 5.44772 16.4477 5 17 5C17.5523 5 18 5.44772 18 6ZM17 13C17.5523 13 18 12.5523 18 12C18 11.4477 17.5523 11 17 11C16.4477 11 16 11.4477 16 12C16 12.5523 16.4477 13 17 13ZM18 18C18 18.5523 17.5523 19 17 19C16.4477 19 16 18.5523 16 18C16 17.4477 16.4477 17 17 17C17.5523 17 18 17.4477 18 18Z" fill="black"/>
</svg>
