<svg width="24" height="24" viewBox="0 0 24 24" fill="none" xmlns="http://www.w3.org/2000/svg">
<path fill-rule="evenodd" clip-rule="evenodd" d="M2.81818 19H18.5858L21.2929 21.7071L22.7071 20.2929L2.70711 0.292908L1.29289 1.70712L2.60003 3.01426C1.69873 3.13281 1 3.97665 1 5.00001V17C1 18.1046 1.81403 19 2.81818 19ZM3 5.00001H4.58579L7.58579 8.00001H3V5.00001ZM9.58579 10H3V17H16.5858L9.58579 10ZM8.21421 3.00001L10.2142 5.00001H21V8.00001H13.2142L15.2142 10H21V15.7858L22.8927 17.6785C22.9621 17.4667 23 17.2382 23 17V5.00001C23 3.89544 22.186 3.00001 21.1818 3.00001H8.21421Z" fill="black"/>
</svg>
