<svg width="24" height="24" viewBox="0 0 24 24" fill="none" xmlns="http://www.w3.org/2000/svg">
<path fill-rule="evenodd" clip-rule="evenodd" d="M3 14.0002C3 18.8975 6.76073 23 12 23C17.2393 23 21 18.8975 21 14.0002C21 11.8002 20.2594 9.18899 18.888 6.54024C16.9336 2.76511 15.2023 1 12.5 1H11.5C8.77118 1 6.59001 3.20136 5.08579 6.59475C3.63236 9.87359 3 11.9853 3 14.0002ZM19 14.0002C19 17.8299 16.094 21 12 21C7.90601 21 5 17.8299 5 14.0002C5 12.3364 5.56564 10.4475 6.91421 7.40525C8.13212 4.65773 9.77465 3 11.5 3H12.5C14.202 3 15.475 4.2979 17.112 7.45976C18.3458 9.84303 19 12.1494 19 14.0002ZM12 17.75C9.79086 17.75 8 15.9591 8 13.75C8 11.4513 9.822 9 12 9C14.178 9 16 11.4513 16 13.75C16 15.9591 14.2091 17.75 12 17.75ZM14 13.75C14 14.8546 13.1046 15.75 12 15.75C10.8954 15.75 10 14.8546 10 13.75C10 12.4489 11.077 11 12 11C12.923 11 14 12.4489 14 13.75Z" fill="black"/>
</svg>
