<svg width="24" height="24" viewBox="0 0 24 24" fill="none" xmlns="http://www.w3.org/2000/svg">
<path fill-rule="evenodd" clip-rule="evenodd" d="M11.1793 10.0089C9.38577 9.80868 7.073 10.6085 5.47667 12.2077C3.48343 14.2045 3.5488 16.686 5.42669 18.5672C7.30458 20.4484 9.78165 20.5139 11.7749 18.5171C13.3509 16.9383 14.1492 14.6599 13.9769 12.8732C13.8987 12.0623 13.6206 11.3527 13.1245 10.8557C12.6425 10.3728 11.9601 10.0961 11.1793 10.0089ZM15.1811 10.2502L16.9944 8.43361L17.6758 8.88587C18.2647 9.27671 19.0564 9.20139 19.563 8.69387C20.1488 8.10704 20.1488 7.15561 19.563 6.56878C19.3296 6.33489 19.0345 6.18917 18.7154 6.14373L17.9717 6.03785L17.866 5.29287C17.8207 4.97316 17.6752 4.67757 17.4417 4.44368C16.8559 3.85685 15.9062 3.85685 15.3204 4.44368C14.8138 4.95119 14.7386 5.74433 15.1287 6.33424L15.5802 7.01688L13.7754 8.82495C14.0491 9.00103 14.3046 9.20556 14.5381 9.43955C14.7849 9.68672 14.9988 9.95839 15.1811 10.2502ZM11.7107 8.05982L13.0836 6.68447C12.6398 5.43768 12.9293 4.00562 13.9062 3.02695C15.273 1.65768 17.4891 1.65768 18.8559 3.02695C19.2285 3.40017 19.5064 3.84476 19.6783 4.32823C20.1609 4.50038 20.6047 4.77883 20.9773 5.15205C22.3441 6.52131 22.3441 8.74134 20.9773 10.1106C20.0003 11.0893 18.5708 11.3792 17.3262 10.9347L15.9256 12.3378C16.2987 14.8359 15.2508 17.8643 13.1848 19.9339C10.394 22.7297 6.65438 22.6309 4.01232 19.9841C1.37027 17.3373 1.27159 13.5911 4.06245 10.7953C6.14656 8.70746 9.20466 7.65746 11.7107 8.05982Z" fill="black"/>
</svg>
