<svg width="24" height="24" viewBox="0 0 24 24" fill="none" xmlns="http://www.w3.org/2000/svg">
<path fill-rule="evenodd" clip-rule="evenodd" d="M11 23V19H6.81818C5.81403 19 5 18.1046 5 17V8C5 4.13401 8.13401 1 12 1C15.866 1 19 4.13401 19 8V17C19 18.1046 18.186 19 17.1818 19H13V23H11ZM16.651 13.3368C16.629 13.3512 16.5703 13.3917 16.5035 13.4378L16.5035 13.4378C16.4109 13.5016 16.3028 13.5761 16.2549 13.6071C15.8572 13.8641 15.4792 14 15 14C14.3921 14 14.0072 13.8537 13.0821 13.3965C12.7643 13.2394 12.6096 13.1677 12.4456 13.1054C12.2536 13.0326 12.1084 13 12 13C11.8145 13 11.5692 13.0856 11.1037 13.3176C11.0299 13.3545 11.0298 13.3545 10.9534 13.393L10.9532 13.3931C10.0661 13.8399 9.63902 14 9 14C8.3617 14 7.92806 13.8384 7.0416 13.3939L7 13.3731V17H17V13.1514C16.8778 13.2006 16.7652 13.2621 16.651 13.3368ZM12 3C14.7614 3 17 5.23858 17 8V11.0825C16.4469 11.1838 15.9922 11.3779 15.5561 11.6632C15.5061 11.6959 15.4031 11.7669 15.3151 11.8276C15.2471 11.8745 15.188 11.9152 15.1692 11.9274C15.0694 11.9919 15.0469 12 15 12C14.825 12 14.5888 11.9102 13.9682 11.6035C13.5939 11.4185 13.3986 11.328 13.1555 11.2357C12.7549 11.0835 12.3822 11 12 11C11.4111 11 10.9414 11.1639 10.2117 11.5275C10.1708 11.548 10.1507 11.558 10.1307 11.5681C10.1112 11.5778 10.0918 11.5876 10.0536 11.6069C9.45484 11.9084 9.21056 12 9 12C8.78796 12 8.53759 11.9067 7.93798 11.6061C7.53332 11.4032 7.25278 11.2711 7 11.1811V8C7 5.23858 9.23858 3 12 3Z" fill="black"/>
</svg>
