<svg width="24" height="24" viewBox="0 0 24 24" fill="none" xmlns="http://www.w3.org/2000/svg">
<path fill-rule="evenodd" clip-rule="evenodd" d="M3 6H19C20.1046 6 21 6.89543 21 8V9C22.1046 9 23 9.89543 23 11V13C23 14.1046 22.1046 15 21 15V16C21 17.1046 20.1046 18 19 18H3C1.89543 18 1 17.1046 1 16V8C1 6.89543 1.89543 6 3 6ZM3 8V16H19V8H3ZM4.07812 9.07373H6.07812V15.2612H4.07812V9.07373ZM9.07812 9.07373H7.07812V15.2612H9.07812V9.07373ZM10.0781 9.07373H12.0781V15.2612H10.0781V9.07373ZM15.0781 9.07373H13.0781V15.2612H15.0781V9.07373Z" fill="black"/>
</svg>
