<svg width="24" height="24" viewBox="0 0 24 24" fill="none" xmlns="http://www.w3.org/2000/svg">
<path fill-rule="evenodd" clip-rule="evenodd" d="M19.6276 12C21.7203 15.4223 22.2459 18.7245 20.4851 20.4853C18.7242 22.2462 15.4221 21.7206 11.9998 19.6278C8.57754 21.7206 5.27536 22.2462 3.51452 20.4853C1.75369 18.7245 2.27928 15.4223 4.372 12C2.27928 8.57779 1.75369 5.2756 3.51452 3.51477C5.27536 1.75393 8.57754 2.27952 11.9998 4.37225C15.4221 2.27952 18.7242 1.75393 20.4851 3.51477C22.2459 5.2756 21.7203 8.57778 19.6276 12ZM9.17138 9.17162C10.0978 8.24524 11.0566 7.44249 11.9998 6.77451C12.943 7.44249 13.9018 8.24524 14.8282 9.17162C15.7546 10.098 16.5574 11.0568 17.2253 12C16.5574 12.9433 15.7546 13.9021 14.8282 14.8285C13.9018 15.7549 12.9431 16.5576 11.9998 17.2256C11.0566 16.5576 10.0978 15.7549 9.17138 14.8285C8.245 13.9021 7.44224 12.9433 6.77427 12C7.44224 11.0568 8.245 10.098 9.17138 9.17162ZM4.92874 4.92898C5.79022 4.0675 7.82032 4.36807 10.1705 5.63348C9.35193 6.26231 8.541 6.97357 7.75716 7.75741C6.97332 8.54125 6.26206 9.35217 5.63324 10.1707C4.36783 7.82056 4.06726 5.79046 4.92874 4.92898ZM16.2424 7.75741C17.0263 8.54125 17.7375 9.35217 18.3664 10.1707C19.6318 7.82056 19.9324 5.79046 19.0709 4.92898C18.2094 4.0675 16.1793 4.36807 13.8292 5.63348C14.6477 6.26231 15.4586 6.97357 16.2424 7.75741ZM16.2424 16.2427C17.0263 15.4588 17.7375 14.6479 18.3664 13.8294C19.6318 16.1795 19.9324 18.2096 19.0709 19.0711C18.2094 19.9326 16.1793 19.632 13.8292 18.3666C14.6477 17.7378 15.4586 17.0265 16.2424 16.2427ZM5.63324 13.8294C6.26206 14.6479 6.97332 15.4588 7.75716 16.2427C8.541 17.0265 9.35193 17.7378 10.1705 18.3666C7.82032 19.632 5.79022 19.9326 4.92874 19.0711C4.06726 18.2096 4.36783 16.1795 5.63324 13.8294ZM12.9998 12C12.9998 11.4478 12.5521 11 11.9998 11C11.4475 11 10.9998 11.4478 10.9998 12C10.9998 12.5523 11.4475 13 11.9998 13C12.5521 13 12.9998 12.5523 12.9998 12Z" fill="black"/>
</svg>
