<svg width="24" height="24" viewBox="0 0 24 24" fill="none" xmlns="http://www.w3.org/2000/svg">
<path fill-rule="evenodd" clip-rule="evenodd" d="M13 5.07089C12.6734 5.02417 12.3395 5 12 5C11.6605 5 11.3266 5.02417 11 5.07089V1.04484C11.3294 1.01516 11.6629 1 12 1C12.3371 1 12.6706 1.01516 13 1.04484V5.07089ZM7 12C7 14.7614 9.23858 17 12 17C14.7614 17 17 14.7614 17 12C17 9.23858 14.7614 7 12 7C9.23858 7 7 9.23858 7 12ZM15 12C15 13.6569 13.6569 15 12 15C10.3431 15 9 13.6569 9 12C9 10.3431 10.3431 9 12 9C13.6569 9 15 10.3431 15 12ZM13 22.9552V18.9291C12.6734 18.9758 12.3395 19 12 19C11.6605 19 11.3266 18.9758 11 18.9291V22.9552C11.3294 22.9848 11.6629 23 12 23C12.3371 23 12.6706 22.9848 13 22.9552ZM18.9291 11H22.9552C22.9848 11.3294 23 11.6629 23 12C23 12.3371 22.9848 12.6706 22.9552 13H18.9291C18.9758 12.6734 19 12.3395 19 12C19 11.6605 18.9758 11.3266 18.9291 11ZM5 12C5 11.6605 5.02417 11.3266 5.07089 11H1.04484C1.01516 11.3294 1 11.6629 1 12C1 12.3371 1.01516 12.6706 1.04484 13H5.07089C5.02417 12.6734 5 12.3395 5 12ZM16.1922 6.39362L19.0391 3.54673C19.5521 3.9744 20.0256 4.44791 20.4533 4.96094L17.6064 7.80783C17.2049 7.27173 16.7283 6.79513 16.1922 6.39362ZM3.54673 4.96094L6.39362 7.80783C6.79513 7.27173 7.27173 6.79513 7.80783 6.39362L4.96094 3.54673C4.44791 3.9744 3.9744 4.44791 3.54673 4.96094ZM17.6064 16.1922L20.4533 19.0391C20.0256 19.5521 19.5521 20.0256 19.0391 20.4533L16.1922 17.6064C16.7283 17.2049 17.2049 16.7283 17.6064 16.1922ZM4.96094 20.4533L7.80783 17.6064C7.27173 17.2049 6.79513 16.7283 6.39362 16.1922L3.54673 19.0391C3.9744 19.5521 4.44791 20.0256 4.96094 20.4533Z" fill="black"/>
</svg>
