<svg width="24" height="24" viewBox="0 0 24 24" fill="none" xmlns="http://www.w3.org/2000/svg">
<path fill-rule="evenodd" clip-rule="evenodd" d="M12 23C5.92487 23 1 18.0751 1 12C1 5.92487 5.92487 1 12 1C18.0751 1 23 5.92487 23 12C23 18.0751 18.0751 23 12 23ZM14 20.777C14.7013 20.6178 15.3715 20.3768 16 20.0645V3.93552C15.3715 3.62318 14.7013 3.38215 14 3.22302V20.777ZM20 16.1272C19.494 17.106 18.8136 17.9801 18 18.7083V5.29168C18.8136 6.0199 19.494 6.89398 20 7.8728V16.1272ZM12 21V3C7.02944 3 3 7.02944 3 12C3 16.9706 7.02944 21 12 21Z" fill="black"/>
</svg>
