<svg width="24" height="24" viewBox="0 0 24 24" fill="none" xmlns="http://www.w3.org/2000/svg">
<path fill-rule="evenodd" clip-rule="evenodd" d="M19.8095 10.2573C20.7594 9.2357 21.1929 8.35082 20.9485 7.82664C20.704 7.30224 19.7468 7.06555 18.3525 7.13687C19.0477 8.04367 19.5532 9.10361 19.8095 10.2573ZM16.434 5.34028C15.1648 4.49357 13.64 4 11.9998 4C7.88064 4 4.48859 7.1132 4.04821 11.1151C1.64798 13.1736 0.452354 15.3374 1.23632 17.0186C2.02021 18.6996 4.4459 19.1747 7.56523 18.6594C8.83447 19.5063 10.3595 20 11.9998 20C16.1197 20 19.5122 16.8857 19.9516 12.8829C22.3503 10.825 23.5448 8.66206 22.7611 6.98141C21.9774 5.30067 19.5525 4.8255 16.434 5.34028ZM8.05138 16.5178C6.79399 15.418 5.99981 13.8018 5.99981 12C5.99981 8.68629 8.68611 6 11.9998 6C15.273 6 17.9341 8.62106 17.9986 11.8788C16.7273 12.8592 15.1122 13.8583 13.2666 14.7189C11.4218 15.5792 9.619 16.1741 8.05138 16.5178ZM10.7414 17.8678C11.8359 17.512 12.9693 17.0643 14.1118 16.5315C15.2551 15.9984 16.3272 15.4175 17.3039 14.8073C16.2966 16.7065 14.2993 18 11.9998 18C11.5682 18 11.1472 17.9544 10.7414 17.8678ZM5.64705 16.863C4.25166 16.9347 3.29359 16.698 3.04893 16.1734C2.80436 15.6489 3.23853 14.7632 4.18974 13.7408C4.44591 14.8952 4.9515 15.9558 5.64705 16.863Z" fill="black"/>
</svg>
