<svg width="24" height="24" viewBox="0 0 24 24" fill="none" xmlns="http://www.w3.org/2000/svg">
<path fill-rule="evenodd" clip-rule="evenodd" d="M7 8V11.5L3 14.5V20H7C7 21.1046 7.89543 22 9 22H11V23H13V22H15C16.1046 22 17 21.1046 17 20H21V14.5L17 11.5V8C17 4.84392 15.0864 1 12 1C8.91356 1 7 4.84392 7 8ZM13 20H15V10V8C15 5.80724 13.6025 3 12 3C10.3975 3 9 5.80724 9 8V10V20H11V14H13V20ZM5 15.5L7 14V18H5V15.5ZM17 18V14L19 15.5V18H17ZM12 11C10.8954 11 10 10.1046 10 9C10 7.89543 10.8954 7 12 7C13.1046 7 14 7.89543 14 9C14 10.1046 13.1046 11 12 11Z" fill="black"/>
</svg>
