<svg width="24" height="24" viewBox="0 0 24 24" fill="none" xmlns="http://www.w3.org/2000/svg">
<path fill-rule="evenodd" clip-rule="evenodd" d="M12.0001 1C9.9089 1 7.83083 1.70053 6.48768 2.27339L8.00939 3.7951C9.21607 3.36779 10.7213 3 12.0001 3C14.2603 3 16.4144 3.67992 17.8907 4.6641C18.1274 4.82194 18.5489 5.0834 18.8722 5.284C18.9205 5.31397 18.9667 5.34258 19.0097 5.36928C19.0118 5.96182 19.0128 7.87764 19.0091 10.1098C19.0083 10.6273 19.0072 11.1695 19.006 11.8014L19.0019 13.7547C19.001 14.2193 19.0004 14.5513 19.0002 14.7859L20.6927 16.4784C20.8976 15.9856 21.0001 15.4928 21.0001 15C21.0001 14.6186 21.0018 13.8033 21.0039 12.7947C21.0101 9.83711 21.0198 5.21723 21.0001 5C21.0001 4.23241 20.7055 4.05401 19.8901 3.56029C19.6433 3.4108 19.3487 3.23241 19.0001 3C17.5001 2 14.9953 1 12.0001 1ZM3.07054 4.48468L1.29297 2.70711L2.70718 1.29289L22.7072 21.2929L21.293 22.7071L18.1152 19.5293C16.6415 20.6862 14.6031 21.8431 12.0001 23C6.00008 20.3271 3.00008 17.6604 3.00008 15V5C3.00008 4.79045 3.02203 4.62481 3.07054 4.48468ZM16.6943 18.1085L5.00008 6.41421V15C5.00008 16.5085 7.22919 18.5687 12.001 20.802C14.0074 19.865 15.564 18.9578 16.6943 18.1085Z" fill="black"/>
</svg>
