<svg width="24" height="24" viewBox="0 0 24 24" fill="none" xmlns="http://www.w3.org/2000/svg">
<path fill-rule="evenodd" clip-rule="evenodd" d="M1.29297 2.70711L8.01292 9.42706C8.03352 9.76854 8.07879 10.1061 8.14808 10.4378L2.00008 16.5858V22H9.00008V20H11.0001V18H13.0001V16H14.5859L21.293 22.7071L22.7072 21.2929L2.70718 1.29289L1.29297 2.70711ZM10.0001 11.4142L12.5859 14H11.0001V16H9.00008V18H7.00008V20H4.00008V17.4142L10.0001 11.4142ZM9.23818 5.02389C10.5013 3.19694 12.6109 2 15.0001 2C18.8661 2 22.0001 5.13401 22.0001 9C22.0001 11.3892 20.8031 13.4988 18.9762 14.7619L17.5287 13.3144C19.0074 12.4459 20.0001 10.8389 20.0001 9C20.0001 6.23858 17.7615 4 15.0001 4C13.1612 4 11.5542 4.99267 10.6857 6.47138L9.23818 5.02389ZM15.0001 7C13.9644 7 13.1125 7.78728 13.0103 8.79606L15.204 10.9897C16.2128 10.8876 17.0001 10.0357 17.0001 9C17.0001 7.89543 16.1046 7 15.0001 7Z" fill="black"/>
</svg>
