<svg width="24" height="24" viewBox="0 0 24 24" fill="none" xmlns="http://www.w3.org/2000/svg">
<path fill-rule="evenodd" clip-rule="evenodd" d="M3 15C3 17.6604 6 20.3271 12 23C18 20.3333 21 17.6667 21 15C21 14.6186 21.0017 13.8033 21.0038 12.7947C21.01 9.83711 21.0197 5.21723 21 5C21 4.23241 20.7054 4.05401 19.8901 3.56029C19.6432 3.4108 19.3486 3.23241 19 3C17.5 2 14.9952 1 12 1C8.56321 1 5.16179 2.89214 5 3C4.65139 3.23241 4.35679 3.4108 4.10993 3.56029C3.2946 4.05401 3 4.23241 3 5V15ZM19.0018 13.7547C19.0006 14.3838 19 14.7697 19 15C19 16.5142 16.7722 18.5737 12.0009 20.802C7.22911 18.5687 5 16.5085 5 15V5.36333C5.04022 5.33835 5.08307 5.31177 5.12779 5.28403C5.45116 5.08342 5.87264 4.82194 6.1094 4.6641C7.02864 4.05128 9.83809 3 12 3C14.2602 3 16.4143 3.67992 17.8906 4.6641C18.1274 4.82194 18.5488 5.08342 18.8722 5.28403C18.9205 5.31399 18.9666 5.34259 19.0096 5.36928C19.0117 5.96182 19.0127 7.87764 19.009 10.1098C19.0082 10.6272 19.0072 11.1695 19.0059 11.8014L19.0018 13.7547Z" fill="black"/>
</svg>
