<svg width="24" height="24" viewBox="0 0 24 24" fill="none" xmlns="http://www.w3.org/2000/svg">
<path fill-rule="evenodd" clip-rule="evenodd" d="M13.8953 9.49439C13.5245 8.80532 13.1632 8.23232 12.7871 7.7633C12.9147 7.63245 13.0231 7.52301 13.0881 7.46105C14.1673 6.4333 15.2308 6 17 6C20.216 6 23 8.59837 23 12C23 15.4016 20.216 18 17 18C14.1475 18 12.9357 16.5162 11.0881 12.4104C9.56069 9.01617 8.73082 8 7 8C4.74909 8 3 9.86806 3 12C3 14.1411 4.73496 16 7 16C8.04331 16 9.29028 15.5849 10.3793 14.9973C10.7662 15.6627 11.1493 16.2029 11.5568 16.6319C10.1542 17.4309 8.51107 18 7 18C3.59837 18 1 15.216 1 12C1 8.79184 3.61403 6 7 6C9.85252 6 11.0643 7.48383 12.9119 11.5896C14.4393 14.9838 15.2692 16 17 16C19.1411 16 21 14.265 21 12C21 9.73496 19.1411 8 17 8C15.749 8 15.1779 8.23265 14.4674 8.90932C14.3735 8.99878 14.1397 9.24037 13.8953 9.49439Z" fill="black"/>
</svg>
