<svg width="24" height="24" viewBox="0 0 24 24" fill="none" xmlns="http://www.w3.org/2000/svg">
<path fill-rule="evenodd" clip-rule="evenodd" d="M3 16C3 18.6604 6 20.6604 12 22C18 20.6667 21 18.6667 21 16C21 15.6422 21.0015 14.789 21.0034 13.6931V13.6929V13.6925C21.0096 10.1936 21.0201 4.22182 21 4C21 3 20 2 19 2H5C4 2 3 3 3 4V16ZM19.0018 14.6071C19.0006 15.3491 19 15.7712 19 16C19 17.3513 16.8662 18.8123 12.001 19.9486C7.13536 18.8072 5 17.3454 5 16V8H19.0112C19.0108 8.65221 19.0102 9.35626 19.0092 10.0858C19.0083 10.7624 19.0072 11.4735 19.0059 12.2836L19.0018 14.6071ZM19.0113 6H5V4H19L19.0082 4.18072C19.0096 4.1963 19.0109 4.89762 19.0113 6ZM12 11C11.4477 11 11 10.5523 11 10C11 9.44772 11.4477 9 12 9C12.5523 9 13 9.44772 13 10C13 10.5523 12.5523 11 12 11Z" fill="black"/>
</svg>
