<svg width="24" height="24" viewBox="0 0 24 24" fill="none" xmlns="http://www.w3.org/2000/svg">
<path fill-rule="evenodd" clip-rule="evenodd" d="M5.92688 18.0732L7.61133 22.5953L12 20.5887L16.3887 22.5953L18.0732 18.0732L22.5953 16.3887L20.5887 12L22.5953 7.61133L18.0732 5.92688L16.3887 1.40479L12 3.4113L7.61133 1.40479L5.92688 5.92688L1.40479 7.61133L3.4113 12L1.40479 16.3887L5.92688 18.0732ZM15.265 19.8824L12 18.3896L8.73504 19.8824L7.48189 16.5182L4.11767 15.265L5.61042 12L4.11767 8.73504L7.48189 7.48189L8.73504 4.11767L12 5.61042L15.265 4.11767L16.5182 7.48189L19.8824 8.73504L18.3896 12L19.8824 15.265L16.5182 16.5182L15.265 19.8824ZM12 17C9.2386 17 7.00002 14.7614 7.00002 12C7.00002 9.2386 9.2386 7.00002 12 7.00002C14.7614 7.00002 17 9.2386 17 12C17 14.7614 14.7614 17 12 17ZM15 12C15 13.6569 13.6569 15 12 15C10.3432 15 9.00002 13.6569 9.00002 12C9.00002 10.3432 10.3432 9.00002 12 9.00002C13.6569 9.00002 15 10.3432 15 12Z" fill="black"/>
</svg>
