<svg width="24" height="24" viewBox="0 0 24 24" fill="none" xmlns="http://www.w3.org/2000/svg">
<path fill-rule="evenodd" clip-rule="evenodd" d="M2.33586 3.75001L1.29297 4.79291L2.70718 6.20712L3.75008 5.16423L4.25713 5.67128C2.84644 7.39515 2.00008 9.59874 2.00008 12C2.00008 17.5229 6.47723 22 12.0001 22C14.4013 22 16.6049 21.1537 18.3288 19.743L21.293 22.7071L22.7072 21.2929L2.70718 1.29291L1.29297 2.70712L2.33586 3.75001ZM16.9057 18.3199L5.68022 7.09437C4.62716 8.44905 4.00008 10.1513 4.00008 12C4.00008 16.4183 7.5818 20 12.0001 20C13.8488 20 15.551 19.3729 16.9057 18.3199ZM20.0001 12C20.0001 13.1162 19.7715 14.1791 19.3585 15.1442L20.8585 16.6442C21.5876 15.2565 22.0001 13.6764 22.0001 12C22.0001 6.47717 17.5229 2.00001 12.0001 2.00001C10.3237 2.00001 8.7436 2.41253 7.35586 3.14158L8.85585 4.64157C9.82102 4.22862 10.8838 4.00001 12.0001 4.00001C16.4184 4.00001 20.0001 7.58174 20.0001 12ZM19.2072 1.29291L22.7072 4.79291L21.293 6.20712L17.793 2.70712L19.2072 1.29291Z" fill="black"/>
</svg>
