<svg width="24" height="24" viewBox="0 0 24 24" fill="none" xmlns="http://www.w3.org/2000/svg">
<path fill-rule="evenodd" clip-rule="evenodd" d="M16.1624 6.5219C15.2484 4.90509 13.6886 4.01111 12 4.01111C9.33277 4.01111 7 6.21768 7 9.99619C7 13.1127 6.29422 15.0734 4.95849 16.5261C4.74843 16.7546 4.29607 17.1742 4 17.4454V18.0069H20V17.445C19.7016 17.1706 19.2506 16.7506 19.0402 16.5208C18.6957 16.1447 18.3931 15.7349 18.1337 15.2805L19.6209 13.7933C19.8559 14.3308 20.1554 14.7779 20.5154 15.1709C20.6823 15.3531 21.1363 15.7718 21.437 16.0491L21.4371 16.0492C21.5757 16.177 21.6817 16.2747 21.712 16.3055L22 16.5974V20.006H15.8743C15.6241 20.9904 15.0075 21.8525 14.0878 22.4135C12.8059 23.1955 11.1941 23.1955 9.9122 22.4135C8.87009 21.7779 8.29384 21.0676 8.08798 20.006H2V16.5974L2.28796 16.3055C2.32139 16.2718 2.43195 16.1701 2.57466 16.0389C2.8763 15.7615 3.3216 15.3521 3.48596 15.1733C4.46898 14.1042 5 12.629 5 9.99619C5 5.92711 7.23535 3.11713 10.1353 2.27538C10.2402 2.00483 10.4057 1.75332 10.6305 1.5422C11.4003 0.819267 12.5997 0.819267 13.3695 1.5422C13.5948 1.75378 13.7605 2.00593 13.8654 2.27717C15.3496 2.71042 16.661 3.66122 17.587 5.03139L16.1624 6.5219ZM10.1786 20.006C10.3199 20.2687 10.5607 20.4671 10.954 20.707C11.5963 21.0988 12.4037 21.0988 13.046 20.707C13.3434 20.5256 13.5758 20.2856 13.7367 20.006H10.1786ZM19.2929 7.29289L15 11.5858L12.7071 9.29289L11.2929 10.7071L15 14.4142L20.7071 8.70711L19.2929 7.29289Z" fill="black"/>
</svg>
