<svg width="24" height="24" viewBox="0 0 24 24" fill="none" xmlns="http://www.w3.org/2000/svg">
<path fill-rule="evenodd" clip-rule="evenodd" d="M13.8654 2.27717C16.7616 3.1226 19 5.93873 19 9.99619C19 12.6197 19.5317 14.0968 20.5154 15.1709C20.6822 15.3531 21.136 15.7715 21.4367 16.0488L21.4368 16.0489L21.437 16.0491L21.437 16.0491C21.5757 16.1769 21.6817 16.2747 21.712 16.3055L22 16.5974V20.006H15.8743C15.6241 20.9904 15.0075 21.8525 14.0878 22.4135C12.8059 23.1955 11.1941 23.1955 9.9122 22.4135C8.87009 21.7779 8.29384 21.0676 8.08798 20.006H2V16.5974L2.28796 16.3055C2.32139 16.2718 2.43194 16.1701 2.57464 16.0389C2.87628 15.7616 3.3216 15.3521 3.48596 15.1733C4.46898 14.1042 5 12.629 5 9.99619C5 5.9271 7.23535 3.11713 10.1353 2.27538C10.2402 2.00483 10.4057 1.75332 10.6305 1.5422C11.4003 0.819267 12.5997 0.819267 13.3695 1.5422C13.5948 1.75378 13.7605 2.00594 13.8654 2.27717ZM10.1786 20.006H13.7367C13.5758 20.2856 13.3434 20.5256 13.046 20.707C12.4037 21.0988 11.5963 21.0988 10.954 20.707C10.5607 20.4671 10.3199 20.2687 10.1786 20.006ZM20 17.445C19.7016 17.1706 19.2506 16.7506 19.0402 16.5208C17.706 15.064 17 13.1027 17 9.99619C17 6.22907 14.6597 4.01111 12 4.01111C9.33277 4.01111 7 6.21768 7 9.99619C7 13.1127 6.29422 15.0734 4.95849 16.5261C4.74843 16.7546 4.29607 17.1742 4 17.4454V18.0069H20V17.445ZM11 7.99746V10.9962H8V12.9953H11V15.9941H13V12.9953H16V10.9962H13V7.99746H11Z" fill="black"/>
</svg>
