<svg width="24" height="24" viewBox="0 0 24 24" fill="none" xmlns="http://www.w3.org/2000/svg">
<path fill-rule="evenodd" clip-rule="evenodd" d="M1 14C1 16.2091 2.79086 18 5 18C6.45671 18 7.76392 17.2142 8.46504 16H15.535C16.2361 17.2142 17.5433 18 19 18C21.2091 18 23 16.2091 23 14C23 13.2857 22.8114 12.5995 22.4648 12C22.8114 11.4005 23 10.7143 23 10C23 7.79086 21.2091 6 19 6C17.5433 6 16.2361 6.78584 15.535 8H8.46504C7.76392 6.78584 6.45671 6 5 6C2.79086 6 1 7.79086 1 10C1 10.7143 1.18859 11.4005 1.53521 12C1.18859 12.5995 1 13.2857 1 14ZM7.12212 14L6.88645 14.6668C6.6064 15.4591 5.85452 16 5 16C3.89543 16 3 15.1046 3 14C3 13.5002 3.18269 13.0315 3.50903 12.6669L4.10593 12L3.50903 11.3331C3.18269 10.9685 3 10.4998 3 10C3 8.89543 3.89543 8 5 8C5.85452 8 6.6064 8.5409 6.88645 9.33325L7.12212 10H16.8779L17.1135 9.33325C17.3936 8.5409 18.1455 8 19 8C20.1046 8 21 8.89543 21 10C21 10.4998 20.8173 10.9685 20.491 11.3331L19.8941 12L20.491 12.6669C20.8173 13.0315 21 13.5002 21 14C21 15.1046 20.1046 16 19 16C18.1455 16 17.3936 15.4591 17.1135 14.6668L16.8779 14H7.12212Z" fill="black"/>
</svg>
