<svg width="24" height="24" viewBox="0 0 24 24" fill="none" xmlns="http://www.w3.org/2000/svg">
<path fill-rule="evenodd" clip-rule="evenodd" d="M13 5.07089C12.6734 5.02417 12.3395 5 12 5C11.6605 5 11.3266 5.02417 11 5.07089V3.05493C11.3283 3.01863 11.662 3 12 3C12.338 3 12.6717 3.01863 13 3.05493V5.07089ZM7 12C7 14.7614 9.23858 17 12 17C14.7614 17 17 14.7614 17 12C17 9.23858 14.7614 7 12 7C9.23858 7 7 9.23858 7 12ZM15 12C15 13.6569 13.6569 15 12 15C10.3431 15 9 13.6569 9 12C9 10.3431 10.3431 9 12 9C13.6569 9 15 10.3431 15 12ZM13 20.9451V18.9291C12.6734 18.9758 12.3395 19 12 19C11.6605 19 11.3266 18.9758 11 18.9291V20.9451C11.3283 20.9814 11.662 21 12 21C12.338 21 12.6717 20.9814 13 20.9451ZM18.9291 11H20.9451C20.9814 11.3283 21 11.662 21 12C21 12.338 20.9814 12.6717 20.9451 13H18.9291C18.9758 12.6734 19 12.3395 19 12C19 11.6605 18.9758 11.3266 18.9291 11ZM5 12C5 11.6605 5.02417 11.3266 5.07089 11H3.05493C3.01863 11.3283 3 11.662 3 12C3 12.338 3.01863 12.6717 3.05493 13H5.07089C5.02417 12.6734 5 12.3395 5 12ZM16.1922 6.39362L17.6177 4.9681C18.1397 5.38571 18.6143 5.86025 19.0319 6.38231L17.6064 7.80783C17.2049 7.27173 16.7283 6.79513 16.1922 6.39362ZM4.9681 6.38231L6.39362 7.80783C6.79513 7.27173 7.27173 6.79513 7.80783 6.39362L6.38231 4.9681C5.86025 5.38571 5.38571 5.86025 4.9681 6.38231ZM17.6064 16.1922L19.0319 17.6177C18.6143 18.1397 18.1397 18.6143 17.6177 19.0319L16.1922 17.6064C16.7283 17.2049 17.2049 16.7283 17.6064 16.1922ZM6.38231 19.0319L7.80783 17.6064C7.27173 17.2049 6.79513 16.7283 6.39362 16.1922L4.9681 17.6177C5.38571 18.1397 5.86025 18.6143 6.38231 19.0319Z" fill="black"/>
</svg>
