<svg width="24" height="24" viewBox="0 0 24 24" fill="none" xmlns="http://www.w3.org/2000/svg">
<path fill-rule="evenodd" clip-rule="evenodd" d="M4.40763 4.03998L5.88599 5.39514C4.11104 7.03904 3 9.3896 3 11.9996C3 14.6097 4.11104 16.9603 5.88599 18.6042L4.40763 19.9593C2.30811 17.9561 1 15.1306 1 11.9996C1 8.86866 2.30811 6.0432 4.40763 4.03998ZM9 12C9 13.6568 10.3431 15 12 15C13.6569 15 15 13.6568 15 12C15 10.3431 13.6569 8.99998 12 8.99998C10.3431 8.99998 9 10.3431 9 12ZM13 12C13 12.5523 12.5523 13 12 13C11.4477 13 11 12.5523 11 12C11 11.4477 11.4477 11 12 11C12.5523 11 13 11.4477 13 12ZM8.8525 8.11444L7.36666 6.75242C5.91525 8.03501 5 9.91044 5 11.9996C5 14.0889 5.91525 15.9643 7.36666 17.2469L8.8525 15.8849C7.72232 14.9682 7 13.5683 7 11.9996C7 10.431 7.72232 9.03115 8.8525 8.11444ZM19.5924 4.04031C21.6919 6.04353 23 8.86899 23 12C23 15.131 21.6919 17.9564 19.5924 19.9596L18.114 18.6045C19.889 16.9606 21 14.61 21 12C21 9.38993 19.889 7.03937 18.114 5.39547L19.5924 4.04031ZM19 12C19 9.91077 18.0848 8.03534 16.6333 6.75275L15.1475 8.11477C16.2777 9.03148 17 10.4314 17 12C17 13.5686 16.2777 14.9685 15.1475 15.8852L16.6333 17.2472C18.0848 15.9646 19 14.0892 19 12Z" fill="black"/>
</svg>
