<svg width="24" height="24" viewBox="0 0 24 24" fill="none" xmlns="http://www.w3.org/2000/svg">
<path fill-rule="evenodd" clip-rule="evenodd" d="M17.5858 19H7C3.68629 19 1 16.3137 1 13C1 10.1321 3.01605 7.72292 5.72212 7.13635L1.29289 2.70712L2.70711 1.29291L22.7071 21.2929L21.2929 22.7071L17.5858 19ZM7.45532 8.86955L7.39066 8.98153L6.83965 9.00315C4.69934 9.08717 3 10.8505 3 13C3 15.2092 4.79086 17 7 17H15.5858L7.45532 8.86955ZM20.2257 16.0115L21.641 17.4268C22.4837 16.5319 23 15.3262 23 14C23 11.485 21.1431 9.40364 18.7254 9.05226C17.875 6.10564 15.1586 4.00001 12 4.00001C10.9093 4.00001 9.86235 4.25171 8.92461 4.71041L10.4571 6.24292C10.9466 6.08438 11.4659 6.00001 12 6.00001C14.4511 6.00001 16.5303 7.77628 16.9309 10.1662L17.0738 11.0182L17.9375 11.0006C17.9531 11.0004 17.9608 11.0003 17.9686 11.0002C17.9765 11.0001 17.9843 11.0001 18 11C19.6569 11 21 12.3432 21 14C21 14.7739 20.7069 15.4794 20.2257 16.0115Z" fill="black"/>
</svg>
