<svg width="24" height="24" viewBox="0 0 24 24" fill="none" xmlns="http://www.w3.org/2000/svg">
<path fill-rule="evenodd" clip-rule="evenodd" d="M2.07491 9.1005C2.04983 9.12559 2.02486 9.15075 2 9.17598L3.41426 10.5902C3.43908 10.565 3.46404 10.5398 3.48913 10.5147C8.15033 5.85352 15.6921 5.82856 20.3842 10.4399L21.7984 9.02559C16.3253 3.63328 7.51717 3.65825 2.07491 9.1005ZM4.75295 11.9289C8.6582 8.02369 14.9898 8.02369 18.8951 11.9289L17.4809 13.3431C14.3567 10.219 9.29136 10.219 6.16717 13.3431L4.75295 11.9289ZM16.0667 14.7574C13.7235 12.4142 9.92453 12.4142 7.58138 14.7574L8.99559 16.1716C10.5577 14.6095 13.0904 14.6095 14.6524 16.1716L16.0667 14.7574ZM13.2382 17.5858C12.4572 16.8047 11.1909 16.8047 10.4098 17.5858L11.824 19L13.2382 17.5858Z" fill="black"/>
</svg>
