<svg width="24" height="24" viewBox="0 0 24 24" fill="none" xmlns="http://www.w3.org/2000/svg">
<path fill-rule="evenodd" clip-rule="evenodd" d="M23 12C23 5.92487 18.0751 1 12 1C5.92487 1 1 5.92487 1 12C1 18.0751 5.92487 23 12 23C18.0751 23 23 18.0751 23 12ZM3 12C3 7.02944 7.02944 3 12 3C16.9706 3 21 7.02944 21 12C21 16.9706 16.9706 21 12 21C7.02944 21 3 16.9706 3 12ZM10.2076 13.4797L11.5844 14.9304C10.8657 15.6124 9.9207 16 8.91768 16C6.74768 16 5 14.203 5 12C5 9.79699 6.74768 8 8.91768 8C9.98883 8 10.9921 8.44215 11.7233 9.20811L10.2767 10.5891C9.9176 10.213 9.4343 10 8.91768 10C7.8649 10 7 10.8893 7 12C7 13.1107 7.8649 14 8.91768 14C9.40135 14 9.85576 13.8136 10.2076 13.4797ZM18.5844 14.9304L17.2076 13.4797C16.8558 13.8136 16.4013 14 15.9177 14C14.8649 14 14 13.1107 14 12C14 10.8893 14.8649 10 15.9177 10C16.4343 10 16.9176 10.213 17.2767 10.5891L18.7233 9.20811C17.9921 8.44215 16.9888 8 15.9177 8C13.7477 8 12 9.79699 12 12C12 14.203 13.7477 16 15.9177 16C16.9207 16 17.8657 15.6124 18.5844 14.9304Z" fill="black"/>
</svg>
