<svg width="24" height="24" viewBox="0 0 24 24" fill="none" xmlns="http://www.w3.org/2000/svg">
<path fill-rule="evenodd" clip-rule="evenodd" d="M21 5C22.1046 5 23 5.89543 23 7V19C23 20.1046 22.1046 21 21 21H18H16H3C1.89543 21 1 20.1046 1 19V5C1 3.89543 1.89543 3 3 3H9C10.12 3 10.8329 3.47545 11.549 4.37885C11.5688 4.40385 11.6171 4.46608 11.6706 4.535L11.6707 4.53515C11.7461 4.63236 11.8318 4.74283 11.8625 4.78082C11.8935 4.81925 11.9196 4.85103 11.9412 4.8773L11.9412 4.87732C12.0292 4.98428 12.0419 4.99978 12.0018 5H21ZM15 19H3V5H9C9.38424 5 9.60702 5.14857 9.9816 5.62116C9.99336 5.636 10.0271 5.67944 10.0691 5.73357L10.0692 5.73375L10.0692 5.73376C10.1496 5.83737 10.2603 5.98006 10.3058 6.03654C10.8087 6.65991 11.2765 6.99614 11.9946 6.99999L15 6.99999V8H16V9H15V11H16V12H15V14H16V15H15V17H16V18H15V19ZM18 19H21V7L17 6.99999V8H18V10H17V11H18V13H17V14H18V16H17V17H18V19Z" fill="black"/>
</svg>
