<svg width="24" height="24" viewBox="0 0 24 24" fill="none" xmlns="http://www.w3.org/2000/svg">
<path fill-rule="evenodd" clip-rule="evenodd" d="M19.7778 8H16V4.22222C16 2.99492 15.186 2 14.1818 2H9.81818C8.81403 2 8 2.99492 8 4.22222V8H4.22222C2.99492 8 2 8.81403 2 9.81818V14.1818C2 15.186 2.99492 16 4.22222 16H8V19.7778C8 21.0051 8.81403 22 9.81818 22H14.1818C15.186 22 16 21.0051 16 19.7778V16H19.7778C21.0051 16 22 15.186 22 14.1818V9.81818C22 8.81403 21.0051 8 19.7778 8ZM20 10H14V4H10V10H4V14H10V20H14V14H20V10Z" fill="black"/>
</svg>
