<svg width="24" height="24" viewBox="0 0 24 24" fill="none" xmlns="http://www.w3.org/2000/svg">
<path fill-rule="evenodd" clip-rule="evenodd" d="M18 11C15.2386 11 13 8.76142 13 6C13 3.23858 15.2386 1 18 1C20.7614 1 23 3.23858 23 6C23 8.76142 20.7614 11 18 11ZM19 12H21V19C21 20.1046 20.1046 21 19 21H5C3.89543 21 3 20.1046 3 19V5C3 3.89543 3.89543 3 5 3H12V5H5V19H19V12ZM21 6C21 7.65685 19.6569 9 18 9C16.3431 9 15 7.65685 15 6C15 4.34315 16.3431 3 18 3C19.6569 3 21 4.34315 21 6Z" fill="black"/>
</svg>
