<svg width="24" height="24" viewBox="0 0 24 24" fill="none" xmlns="http://www.w3.org/2000/svg">
<path fill-rule="evenodd" clip-rule="evenodd" d="M19.0001 14.7799V9.99619C19.0001 5.93873 16.7617 3.1226 13.8655 2.27717C13.7606 2.00593 13.5948 1.75378 13.3696 1.5422C12.5998 0.819267 11.4003 0.819267 10.6306 1.5422C10.4058 1.75332 10.2403 2.00483 10.1354 2.27538C9.26838 2.52704 8.46078 2.95463 7.75456 3.53919L9.17644 4.96047C9.99128 4.33972 10.9708 4.01111 12.0001 4.01111C14.6598 4.01111 17.0001 6.22907 17.0001 9.99619C17.0001 11.1799 17.1026 12.1973 17.3033 13.0839L19.0001 14.7799ZM14.0879 22.4135C15.0076 21.8525 15.6242 20.9904 15.8744 20.006H18.5919L21.293 22.7071L22.7072 21.2929L2.70718 1.29289L1.29297 2.70711L5.48738 6.90152C5.17386 7.82494 5.00008 8.86162 5.00008 9.99619C5.00008 12.629 4.46906 14.1042 3.48603 15.1733C3.32168 15.3521 2.87638 15.7615 2.57474 16.0389C2.43202 16.1701 2.32147 16.2718 2.28804 16.3055L2.00008 16.5974V20.006L8.08805 20.006C8.29391 21.0676 8.87017 21.7779 9.91227 22.4135C11.1942 23.1955 12.8059 23.1955 14.0879 22.4135ZM7.12521 8.53935L16.5927 18.0069H4.00008V17.4454C4.29615 17.1742 4.74851 16.7546 4.95856 16.5261C6.2943 15.0734 7.00008 13.1127 7.00008 9.99619C7.00008 9.48079 7.04348 8.99464 7.12521 8.53935ZM10.1787 20.006H13.7368C13.5759 20.2856 13.3435 20.5256 13.0461 20.707C12.4038 21.0988 11.5963 21.0988 10.9541 20.707C10.5608 20.4671 10.32 20.2687 10.1787 20.006Z" fill="black"/>
</svg>
