<svg width="24" height="24" viewBox="0 0 24 24" fill="none" xmlns="http://www.w3.org/2000/svg">
<path fill-rule="evenodd" clip-rule="evenodd" d="M7.03367 6C7.32766 3.81519 9.51103 2 12.0001 2C14.4891 2 16.6725 3.81519 16.9665 6H19.8471C20.9516 6 21.8471 6.89543 21.8471 8C21.8471 8.09464 21.8404 8.18916 21.827 8.28284L20.1127 20.2828C19.9719 21.2681 19.1281 22 18.1328 22H5.86737C4.87207 22 4.02823 21.2681 3.88747 20.2828L2.17319 8.28284C2.01698 7.18937 2.77678 6.17631 3.87024 6.0201C3.96393 6.00672 4.05845 6 4.15309 6H7.03367ZM14.928 6C14.624 4.93808 13.3981 4 12.0001 4C10.602 4 9.37619 4.93808 9.0722 6H14.928ZM4.15309 8H7.00008V10H9.00008V8H15.0001V10H17.0001V8H19.8471L18.1328 20H5.86737L4.15309 8Z" fill="black"/>
</svg>
