<svg width="24" height="24" viewBox="0 0 24 24" fill="none" xmlns="http://www.w3.org/2000/svg">
<path fill-rule="evenodd" clip-rule="evenodd" d="M13.8702 13.6111C12.2696 13.0033 10.9965 11.7302 10.3887 10.1296L4.29837 18.8844L5.11539 19.7014L13.8702 13.6111ZM10.0688 7.08722C10.5084 4.20671 12.9964 2 15.9998 2C19.3135 2 21.9998 4.68629 21.9998 8C21.9998 11.0034 19.7931 13.4914 16.9126 13.931L4.88415 22.2986L1.70117 19.1156L10.0688 7.08722ZM19.5215 9.89832C19.8266 9.33352 19.9998 8.68698 19.9998 8C19.9998 5.79086 18.2089 4 15.9998 4C15.3061 4 14.6537 4.17656 14.085 4.48719C14.3875 5.43113 15.428 7.01397 16.2069 7.79289C16.9731 8.55909 18.5286 9.5763 19.5215 9.89832ZM18.0329 11.4455C17.4371 11.7978 16.742 12 15.9998 12C13.7906 12 11.9998 10.2091 11.9998 8C11.9998 7.26444 12.1983 6.57525 12.5447 5.9831C13.1014 7.16707 13.9946 8.40909 14.7927 9.20711C15.5804 9.99489 16.8337 10.886 18.0329 11.4455Z" fill="black"/>
</svg>
