<svg width="24" height="24" viewBox="0 0 24 24" fill="none" xmlns="http://www.w3.org/2000/svg">
<path fill-rule="evenodd" clip-rule="evenodd" d="M10 17V19H3C1.89543 19 1 18.1046 1 17V3C1 1.89543 1.89543 1 3 1H17C18.1046 1 19 1.89543 19 3V10H17V3H3V17H10ZM8 7L12 10L8 13V7ZM11 17C11 20.3137 13.6863 23 17 23C20.3137 23 23 20.3137 23 17C23 13.6863 20.3137 11 17 11C13.6863 11 11 13.6863 11 17ZM17 21C19.2091 21 21 19.2091 21 17C21 14.7909 19.2091 13 17 13C14.7909 13 13 14.7909 13 17C13 19.2091 14.7909 21 17 21ZM16 14V18H20V16H18V14H16Z" fill="black"/>
</svg>
