<svg width="24" height="24" viewBox="0 0 24 24" fill="none" xmlns="http://www.w3.org/2000/svg">
<path fill-rule="evenodd" clip-rule="evenodd" d="M18 21C19.1046 21 20 20.1046 20 19H21C22.1046 19 23 18.1046 23 17V7C23 5.89543 22.1046 5 21 5H20C20 3.89543 19.1046 3 18 3H6C4.89543 3 4 3.89543 4 5H3C1.89543 5 1 5.89543 1 7V17C1 18.1046 1.89543 19 3 19H4C4 20.1046 4.89543 21 6 21H18ZM18 5V19H6V5H18ZM12 12.1405V7.13148L16.5547 10.1679L15.4453 11.8321L14 10.8685V14.5C14 15.9534 12.6046 17 11 17C9.39543 17 8 15.9534 8 14.5C8 13.0466 9.39543 12 11 12C11.3471 12 11.6845 12.049 12 12.1405ZM3 7H4V17H3V7ZM20 17H21V7H20V17ZM12 14.5C12 14.7034 11.6046 15 11 15C10.3954 15 10 14.7034 10 14.5C10 14.2966 10.3954 14 11 14C11.6046 14 12 14.2966 12 14.5Z" fill="black"/>
</svg>
