<svg width="24" height="24" viewBox="0 0 24 24" fill="none" xmlns="http://www.w3.org/2000/svg">
<path fill-rule="evenodd" clip-rule="evenodd" d="M23 12C23 18.0751 18.0751 23 12 23C5.92487 23 1 18.0751 1 12C1 5.92487 5.92487 1 12 1C18.0751 1 23 5.92487 23 12ZM3 12C3 16.9706 7.02944 21 12 21C16.9706 21 21 16.9706 21 12C21 7.02944 16.9706 3 12 3C7.02944 3 3 7.02944 3 12ZM8 7C8 6.21456 8.86395 5.73572 9.53 6.152L17.53 11.152C18.1567 11.5437 18.1567 12.4563 17.53 12.848L9.53 17.848C8.86395 18.2643 8 17.7854 8 17V7ZM10 8.80425L15.1132 12L10 15.1958V8.80425Z" fill="black"/>
</svg>
