<svg width="24" height="24" viewBox="0 0 24 24" fill="none" xmlns="http://www.w3.org/2000/svg">
<path fill-rule="evenodd" clip-rule="evenodd" d="M8 8.61803L12 6.61803V17.382L8 15.382V8.61803ZM6.76393 6.99999L14 3.38196V20.618L6.76393 17H3C1.89543 17 1 16.1046 1 15V8.99999C1 7.89542 1.89543 6.99999 3 6.99999H6.76393ZM6 8.99999H3V15H6V8.99999ZM20.4142 12L22.7071 14.2929L21.2929 15.7071L19 13.4142L16.7071 15.7071L15.2929 14.2929L17.5858 12L15.2929 9.7071L16.7071 8.29289L19 10.5858L21.2929 8.29289L22.7071 9.7071L20.4142 12Z" fill="black"/>
</svg>
