<svg width="24" height="24" viewBox="0 0 24 24" fill="none" xmlns="http://www.w3.org/2000/svg">
<path fill-rule="evenodd" clip-rule="evenodd" d="M2.70711 1.29291L1.29289 2.70712L5.58579 7.00001H3C1.89543 7.00001 1 7.89544 1 9.00001V15C1 16.1046 1.89543 17 3 17H6.76393L14 20.618V15.4142L21.2929 22.7071L22.7071 21.2929L2.70711 1.29291ZM12 13.4142L8 9.41423V15.382L12 17.382V13.4142ZM12 6.61805V7.7858L14 9.7858V3.38198L9.73079 5.51659L11.2215 7.0073L12 6.61805ZM16.9616 12.7474L18.6654 14.4512C18.8828 13.6773 19 12.8533 19 12C19 9.58935 18.0649 7.4124 16.5748 5.94021L14.9973 7.2022C16.2072 8.29172 17 10.0257 17 12C17 12.2534 16.9869 12.5028 16.9616 12.7474ZM20.2542 16.04L21.7717 17.5575C22.5539 15.9223 23 14.0209 23 12C23 8.56812 21.7136 5.48076 19.6791 3.45674L18.1031 4.71749C19.8488 6.34637 21 8.98784 21 12C21 13.4578 20.7304 14.8287 20.2542 16.04ZM6 9.00001H3V15H6V9.00001Z" fill="black"/>
</svg>
