<svg width="24" height="24" viewBox="0 0 24 24" fill="none" xmlns="http://www.w3.org/2000/svg">
<path fill-rule="evenodd" clip-rule="evenodd" d="M12 23C5.92487 23 1 18.0751 1 12C1 5.92487 5.92487 1 12 1C18.0751 1 23 5.92487 23 12C23 18.0751 18.0751 23 12 23ZM12 21C16.9706 21 21 16.9706 21 12C21 7.02944 16.9706 3 12 3C7.02944 3 3 7.02944 3 12C3 16.9706 7.02944 21 12 21ZM14.7906 14.7906L17.5811 6.41886L9.20943 9.20943L6.41886 17.5811L14.7906 14.7906ZM13.2094 13.2094L9.58114 14.4189L10.7906 10.7906L14.4189 9.58114L13.2094 13.2094Z" fill="black"/>
</svg>
