<svg width="24" height="24" viewBox="0 0 24 24" fill="none" xmlns="http://www.w3.org/2000/svg">
<path fill-rule="evenodd" clip-rule="evenodd" d="M11.9998 3C15.8658 3 18.9998 6.13401 18.9998 10C18.9998 13.866 15.8658 17 11.9998 17C8.1338 17 4.99979 13.866 4.99979 10C4.99979 6.13401 8.1338 3 11.9998 3ZM12.9998 19.9506V21H14.9998V23H8.99979V21H10.9998V19.9504C8.71296 19.7228 6.59707 18.7193 4.97266 17.1147L6.37813 15.6918C7.86638 17.1619 9.86559 18 11.9998 18C16.4181 18 19.9998 14.4183 19.9998 10C19.9998 7.8997 19.1883 5.92973 17.7596 4.44798L19.1993 3.05979C20.9839 4.91066 21.9998 7.37666 21.9998 10C21.9998 15.1853 18.0531 19.4489 12.9998 19.9506ZM6.99979 10C6.99979 7.23858 9.23837 5 11.9998 5C14.7612 5 16.9998 7.23858 16.9998 10C16.9998 12.7614 14.7612 15 11.9998 15C9.23837 15 6.99979 12.7614 6.99979 10Z" fill="black"/>
</svg>
