<svg width="24" height="24" viewBox="0 0 24 24" fill="none" xmlns="http://www.w3.org/2000/svg">
<path fill-rule="evenodd" clip-rule="evenodd" d="M18.5874 14.3732L20.1137 15.8995C20.5443 15.0051 20.8314 14.0287 20.9451 13H23V11H20.9451C20.4839 6.82838 17.1716 3.51608 13 3.05493V1H11V3.05493C9.97131 3.16865 8.99487 3.45574 8.10055 3.88633L9.62677 5.41255C10.3678 5.14553 11.1669 5 12 5C15.866 5 19 8.13401 19 12C19 12.8331 18.8545 13.6322 18.5874 14.3732ZM13 20.9451C14.7359 20.7532 16.3229 20.0676 17.6177 19.0319L21.2929 22.7071L22.7071 21.2929L2.70711 1.29289L1.29289 2.70711L4.9681 6.38231C3.93238 7.67708 3.24682 9.26415 3.05493 11H1V13H3.05493C3.51608 17.1716 6.82838 20.4839 11 20.9451V23H13V20.9451ZM5 12C5 10.4277 5.5184 8.97641 6.39362 7.80783L8.55382 9.96803C8.20193 10.5635 8 11.2582 8 12C8 14.2091 9.79086 16 12 16C12.7418 16 13.4365 15.7981 14.032 15.4462L16.1922 17.6064C15.0236 18.4816 13.5723 19 12 19C8.13401 19 5 15.866 5 12ZM10.0677 11.482C10.0236 11.6472 10 11.8208 10 12C10 13.1046 10.8954 14 12 14C12.1792 14 12.3528 13.9764 12.518 13.9323L10.0677 11.482Z" fill="black"/>
</svg>
