<svg width="24" height="24" viewBox="0 0 24 24" fill="none" xmlns="http://www.w3.org/2000/svg">
<path fill-rule="evenodd" clip-rule="evenodd" d="M4 9.5277C4.80865 9.94791 5.82939 10.2848 7 10.5297V13.4703V15.532V18.468C5.17069 18.0493 4 17.4615 4 17V9.5277ZM9 18.8156V19V20.8427C4.94412 20.3983 2 19.0322 2 17V7C2 4.49324 6.47973 3 12 3C17.5203 3 22 4.49324 22 7V17C22 19.0322 19.0559 20.3983 15 20.8427V19V18.8156V15.1844C14.0737 15.0687 13.0611 15 12 15C10.9389 15 9.92627 15.0687 9 15.1844V18.8156ZM20 17C20 17.4615 18.8293 18.0493 17 18.468V15.532V13.4703V10.5297C18.1706 10.2848 19.1913 9.94791 20 9.5277V17ZM15 13.1573V8.81564C17.9328 8.44952 20 7.61327 20 7C20 6.19305 16.4209 5 12 5C7.57914 5 4 6.19305 4 7C4 7.61327 6.06718 8.44952 9 8.81564V13.1573C9.94715 13.0535 10.9549 13 12 13C13.0451 13 14.0528 13.0535 15 13.1573Z" fill="black"/>
</svg>
