<svg width="24" height="24" viewBox="0 0 24 24" fill="none" xmlns="http://www.w3.org/2000/svg">
<path fill-rule="evenodd" clip-rule="evenodd" d="M5 1H15.4142L21 6.58579V21C21 22.1046 20.1046 23 19 23H5C3.89543 23 3 22.1046 3 21V3C3 1.89543 3.89543 1 5 1ZM13 3H5V21H19V9H15C13.8954 9 13 8.10457 13 7V3ZM15 3.41421V7H18.5858L15 3.41421ZM8.29289 11.7071L9.70711 10.2929L12 12.5858L14.2929 10.2929L15.7071 11.7071L13.4142 14L15.7071 16.2929L14.2929 17.7071L12 15.4142L9.70711 17.7071L8.29289 16.2929L10.5858 14L8.29289 11.7071Z" fill="black"/>
</svg>
