<svg width="24" height="24" viewBox="0 0 24 24" fill="none" xmlns="http://www.w3.org/2000/svg">
<path fill-rule="evenodd" clip-rule="evenodd" d="M21 5C22.1046 5 23 5.89543 23 7V19C23 20.1046 22.1046 21 21 21H3C1.89543 21 1 20.1046 1 19V5C1 3.89543 1.89543 3 3 3H9C10.12 3 10.8329 3.47545 11.549 4.37885C11.5688 4.40385 11.6171 4.46608 11.6706 4.535L11.6707 4.53515C11.7461 4.63236 11.8318 4.74283 11.8625 4.78082C11.8935 4.81925 11.9196 4.85103 11.9412 4.8773L11.9412 4.87732C12.0292 4.98428 12.0419 4.99978 12.0018 5H21ZM21 19V7L11.9946 6.99999C11.2765 6.99614 10.8087 6.65991 10.3058 6.03654C10.2603 5.98006 10.1496 5.83737 10.0692 5.73376L10.0692 5.73375L10.0691 5.73357C10.0271 5.67944 9.99336 5.636 9.9816 5.62116C9.60702 5.14857 9.38424 5 9 5H3V19H21ZM16.0586 10.7601C15.396 9.14531 13.8381 8 12 8C10.5473 8 9.2401 8.72349 8.43419 9.86245C7.00976 10.3577 6 11.7353 6 13.3333C6 15.3405 7.5931 17 9.6 17H14.8C16.586 17 18 15.5271 18 13.75C18 12.4192 17.207 11.2589 16.0586 10.7601ZM14.8 15H9.6C8.71634 15 8 14.2538 8 13.3333C8 12.4129 8.71634 11.6667 9.6 11.6667C9.64533 11.6667 9.69022 11.6686 9.7346 11.6725C10.0625 10.6985 10.9529 10 12 10C13.3255 10 14.4 11.1193 14.4 12.5C14.4 12.5239 14.3997 12.5477 14.399 12.5715C14.5244 12.5252 14.6594 12.5 14.8 12.5C15.4627 12.5 16 13.0596 16 13.75C16 14.4404 15.4627 15 14.8 15Z" fill="black"/>
</svg>
