<svg width="24" height="24" viewBox="0 0 24 24" fill="none" xmlns="http://www.w3.org/2000/svg">
<path fill-rule="evenodd" clip-rule="evenodd" d="M23 7C23 5.89543 22.1046 5 21 5H12.0018C12.0419 4.99978 12.0292 4.98428 11.9412 4.87732L11.9412 4.8773C11.9196 4.85103 11.8935 4.81925 11.8625 4.78082C11.8318 4.74283 11.7461 4.63236 11.6707 4.53515L11.6706 4.535C11.6171 4.46608 11.5688 4.40385 11.549 4.37885C10.8329 3.47545 10.12 3 9 3H3C1.89543 3 1 3.89543 1 5V19C1 20.1046 1.89543 21 3 21H14V19H3V11H21V15H23V7ZM21 9V7L11.9946 6.99999C11.2765 6.99614 10.8087 6.65991 10.3058 6.03654C10.2603 5.98007 10.1496 5.83739 10.0692 5.73379L10.0692 5.73376L10.0692 5.73375L10.0691 5.73357L10.0684 5.73274C10.0267 5.67899 9.9933 5.63592 9.9816 5.62116C9.60702 5.14857 9.38424 5 9 5H3V9H21ZM17 21V19H19V17H21V19H23V21H21V23H19V21H17Z" fill="black"/>
</svg>
