<svg width="24" height="24" viewBox="0 0 24 24" fill="none" xmlns="http://www.w3.org/2000/svg">
<path fill-rule="evenodd" clip-rule="evenodd" d="M23 7C23 5.89543 22.1046 5 21 5H12.0018C12.0419 4.99978 12.0292 4.98428 11.9412 4.87732C11.9196 4.85104 11.8935 4.81925 11.8625 4.78082C11.8318 4.74281 11.746 4.63225 11.6706 4.535C11.6171 4.46608 11.5688 4.40385 11.549 4.37885C10.8329 3.47545 10.12 3 9 3H3C1.89543 3 1 3.89543 1 5V19C1 20.1046 1.89543 21 3 21H21C22.1046 21 23 20.1046 23 19V7ZM21 7V19H3V5H9C9.38424 5 9.60702 5.14857 9.9816 5.62116C9.99337 5.63601 10.0271 5.67953 10.0692 5.73375C10.1496 5.83736 10.2603 5.98006 10.3058 6.03654C10.8087 6.65991 11.2765 6.99614 11.9946 6.99999L21 7ZM12 13.1405V8.13148L16.5547 11.1679L15.4453 12.8321L14 11.8685V15.5C14 16.9534 12.6046 18 11 18C9.39543 18 8 16.9534 8 15.5C8 14.0466 9.39543 13 11 13C11.3471 13 11.6845 13.049 12 13.1405ZM11 16C11.6046 16 12 15.7034 12 15.5C12 15.2966 11.6046 15 11 15C10.3954 15 10 15.2966 10 15.5C10 15.7034 10.3954 16 11 16Z" fill="black"/>
</svg>
