<svg width="24" height="24" viewBox="0 0 24 24" fill="none" xmlns="http://www.w3.org/2000/svg">
<path fill-rule="evenodd" clip-rule="evenodd" d="M2 5H7C9.20914 5 11 6.79086 11 9C11 9.97964 10.6478 10.877 10.0632 11.5725C11.2239 12.2726 12 13.5457 12 15C12 17.2091 10.2091 19 8 19H2V13V11V5ZM4 17V13H7H8C9.10457 13 10 13.8954 10 15C10 16.1046 9.10457 17 8 17H4ZM21 6H14V8H21V6ZM17.6378 17C18.6783 17 19.3177 16.7872 19.659 16.467C19.8389 16.2983 19.9139 16.1106 19.9139 16H21.9139C21.9139 17.6272 20.4506 19 17.6378 19C14.8546 19 13 17.1958 13 14C13 11.0339 14.5805 9 17.5 9C20.4195 9 22 11.0339 22 14V15H15.0886C15.3601 16.3771 16.2475 17 17.6378 17ZM19.9146 13C19.6663 11.6902 18.8733 11 17.5 11C16.1267 11 15.3337 11.6902 15.0854 13H19.9146ZM4 11V7H7C8.10457 7 9 7.89543 9 9C9 10.1046 8.10457 11 7 11H4Z" fill="black"/>
</svg>
