<svg width="24" height="24" viewBox="0 0 24 24" fill="none" xmlns="http://www.w3.org/2000/svg">
<path fill-rule="evenodd" clip-rule="evenodd" d="M17.1056 3.5528L14.382 9.00001H9.61809L6.89448 3.5528C6.48949 2.74282 5.30244 2.84527 5.04223 3.71266L2.04223 13.7127C1.92358 14.1081 2.0602 14.5359 2.38611 14.7894L11.3861 21.7894C11.7472 22.0702 12.2529 22.0702 12.614 21.7894L21.614 14.7894C21.9399 14.5359 22.0765 14.1081 21.9579 13.7127L18.9579 3.71266C18.6977 2.84527 17.5106 2.74282 17.1056 3.5528ZM15.8945 10.4472L17.7668 6.70259L19.8454 13.6312L12.0001 19.7332L4.15472 13.6312L6.23331 6.70259L8.10563 10.4472C8.27502 10.786 8.62128 11 9.00005 11H15.0001C15.3788 11 15.7251 10.786 15.8945 10.4472Z" fill="black"/>
</svg>
