<svg width="24" height="24" viewBox="0 0 24 24" fill="none" xmlns="http://www.w3.org/2000/svg">
<path fill-rule="evenodd" clip-rule="evenodd" d="M12 1C18.0751 1 23 5.92487 23 12C23 18.0751 18.0751 23 12 23C5.92487 23 1 18.0751 1 12C1 5.92487 5.92487 1 12 1ZM12 3C7.02944 3 3 7.02944 3 12C3 16.9706 7.02944 21 12 21C16.9706 21 21 16.9706 21 12C21 7.02944 16.9706 3 12 3ZM16.5 12C16.5 7.93772 14.673 6 12 6C9.38569 6 7.5 8.05711 7.5 12C7.5 15.9429 9.38569 18 12 18C14.673 18 16.5 16.0623 16.5 12ZM12 8C10.531 8 9.5 9.12471 9.5 12C9.5 12.8967 9.60027 13.6231 9.78282 14.1983L12.8221 8.11965C12.5714 8.03763 12.2965 8 12 8ZM14.2352 9.76563L11.1861 15.8638C11.4373 15.9562 11.7101 16 12 16C13.5413 16 14.5 14.9832 14.5 12C14.5 11.076 14.408 10.3406 14.2352 9.76563Z" fill="black"/>
</svg>
